<svg xmlns="http://www.w3.org/2000/svg" width="754" viewBox="0 0 565.5 241.5" height="322" version="1.0"><path fill="#000000" d="M151.478 91.048H163.4c.55 0 1.023.203 1.422.61.406.398.609.87.609 1.422v48.718c0 .555-.203 1.032-.61 1.438a1.936 1.936 0 0 1-1.421.594h-13.657a1.977 1.977 0 0 1-1.437-.594 1.977 1.977 0 0 1-.594-1.438v-20.672l-4.984 8.157c-.805 1.25-1.73 1.875-2.781 1.875h-5.282c-1.054 0-1.984-.625-2.797-1.875l-4.968-8.157v20.672c0 .555-.203 1.032-.61 1.438a1.952 1.952 0 0 1-1.437.594h-13.64a1.977 1.977 0 0 1-1.438-.594 1.977 1.977 0 0 1-.594-1.438V93.08c0-.551.195-1.024.594-1.422.406-.407.882-.61 1.437-.61h11.922c1.406 0 2.484.68 3.234 2.032l10.938 18.093 10.937-18.093c.75-1.352 1.829-2.032 3.235-2.032ZM328.201 91.048h13.656c.551 0 1.024.203 1.422.61.407.398.61.87.61 1.422v48.718c0 .555-.203 1.032-.61 1.438a1.936 1.936 0 0 1-1.422.594h-11.921c-1.305 0-2.336-.579-3.094-1.735l-12.735-19.234v18.937c0 .555-.203 1.032-.609 1.438a1.952 1.952 0 0 1-1.437.594H298.42a1.977 1.977 0 0 1-1.438-.594 1.977 1.977 0 0 1-.593-1.438V93.08c0-.551.195-1.024.593-1.422.407-.407.883-.61 1.438-.61h11.922c1.406 0 2.43.578 3.078 1.735l12.75 20.89V93.08c0-.551.195-1.024.594-1.422.406-.407.882-.61 1.437-.61ZM379.324 112.001h20.735c.55 0 1.031.204 1.437.61.407.406.61.886.61 1.437v9.797c0 6.637-2.367 11.75-7.094 15.344-4.73 3.594-11.027 5.39-18.89 5.39-7.868 0-14.063-1.742-18.594-5.234-4.524-3.5-6.782-8.738-6.782-15.719v-12.671c0-6.688 2.313-11.801 6.938-15.344 4.625-3.54 10.797-5.313 18.515-5.313 7.72 0 13.961 1.621 18.735 4.86 4.781 3.242 7.172 7.226 7.172 11.953 0 .449-.168.84-.5 1.172a1.58 1.58 0 0 1-1.157.484h-16.671c-1.012 0-1.743-.273-2.188-.828-1.012-1.313-1.766-2.067-2.266-2.266-1.156-.445-2.21-.672-3.156-.672-3.875 0-5.812 1.887-5.812 5.657v12.812c0 4.274 2.062 6.406 6.187 6.406 4.219 0 6.328-1.804 6.328-5.421h-3.547a1.977 1.977 0 0 1-1.437-.594 2 2 0 0 1-.594-1.453v-8.36c0-.55.196-1.031.594-1.437.406-.406.883-.61 1.437-.61ZM414.34 95.876c4.601-3.718 10.703-5.578 18.297-5.578 7.593 0 13.687 1.875 18.28 5.625 4.602 3.742 6.907 9 6.907 15.782v11.765c0 6.887-2.277 12.125-6.828 15.719-4.555 3.594-10.672 5.39-18.36 5.39-7.687 0-13.808-1.796-18.359-5.39-4.554-3.594-6.828-8.832-6.828-15.719v-11.765c0-6.833 2.297-12.11 6.89-15.829Zm14.218 32.5c1.008 1 2.368 1.5 4.079 1.5 1.707 0 3.062-.5 4.062-1.5 1.008-1.007 1.516-2.546 1.516-4.609v-12.656c0-2.02-.508-3.54-1.516-4.563-1-1.031-2.355-1.547-4.062-1.547-1.711 0-3.07.516-4.079 1.547-1 1.024-1.5 2.543-1.5 4.563v12.656c0 2.063.5 3.602 1.5 4.61Zm0 0"/><path fill="#fdfdfd" d="M174.027 118.738c-.457-19.535 20.848-33.258 39.547-22.535 6.16 3.531 11.39 8.766 17.012 14.48.258.258.375.231.613-.011 8.797-8.871 21.531-22.399 39.367-17.137 7.508 2.215 12.723 7.09 15.395 14.434 8.945 24.578-16.711 44.93-38.711 31.437-5.547-3.402-10.34-8.094-16.004-13.867-.305-.309-.441-.266-.715.012-6.437 6.496-13.363 13.554-21.922 16.508-17.41 6.015-34.101-4.368-34.582-23.32Zm10.895-.379c.555 11.286 9.23 16.547 18.473 14.547 7.988-1.73 14.687-8.761 20.394-14.629.195-.199.086-.28-.047-.402-4.957-4.633-9.797-10.285-15.898-13.2-11.824-5.64-22.961 2.634-22.922 13.684Zm91.937-.476c-.351-10.906-8.949-16.848-18.855-14.524-7.797 1.829-14.457 8.825-19.992 14.516-.192.2-.117.29.039.438 6.922 6.46 15.086 16.664 26.117 14.804 7.352-1.238 12.71-7.644 12.691-15.234Zm0 0"/></svg>